<svg width="117" height="134" viewBox="0 0 117 134" fill="none" xmlns="http://www.w3.org/2000/svg">
<path d="M17.3965 97.3339L14.1849 109.956H11.1373L9.42788 103.325C9.39334 103.199 9.3473 103.006 9.28974 102.747C9.23219 102.488 9.17175 102.206 9.10844 101.901C9.04513 101.59 8.98757 101.3 8.93577 101.029C8.88973 100.753 8.85807 100.534 8.84081 100.373C8.82354 100.534 8.78901 100.75 8.73721 101.02C8.69116 101.291 8.63648 101.579 8.57317 101.884C8.51562 102.189 8.45806 102.474 8.4005 102.738C8.34295 103.003 8.2969 103.205 8.26237 103.343L6.56159 109.956H3.52265L0.302395 97.3339H2.93558L4.55002 104.223C4.59606 104.431 4.64786 104.678 4.70542 104.966C4.76873 105.254 4.82916 105.556 4.88672 105.872C4.95003 106.183 5.00471 106.485 5.05075 106.779C5.10255 107.067 5.13996 107.317 5.16299 107.53C5.19177 107.311 5.22918 107.058 5.27522 106.77C5.32127 106.477 5.37019 106.18 5.42199 105.881C5.47954 105.576 5.5371 105.294 5.59466 105.035C5.65221 104.776 5.70401 104.566 5.75006 104.405L7.58897 97.3339H10.1185L11.9575 104.405C11.9977 104.56 12.0438 104.77 12.0956 105.035C12.1531 105.294 12.2107 105.576 12.2683 105.881C12.3258 106.186 12.3776 106.485 12.4237 106.779C12.4755 107.067 12.5129 107.317 12.5359 107.53C12.5762 107.242 12.6309 106.894 12.6999 106.485C12.7747 106.071 12.8524 105.659 12.933 105.251C13.0194 104.842 13.0942 104.5 13.1575 104.223L14.7633 97.3339H17.3965ZM21.411 100.304V109.956H18.7778V100.304H21.411ZM20.0987 96.5224C20.4901 96.5224 20.8268 96.6145 21.1088 96.7987C21.3909 96.9771 21.5319 97.3138 21.5319 97.8088C21.5319 98.298 21.3909 98.6376 21.1088 98.8275C20.8268 99.0117 20.4901 99.1038 20.0987 99.1038C19.7016 99.1038 19.362 99.0117 19.08 98.8275C18.8037 98.6376 18.6656 98.298 18.6656 97.8088C18.6656 97.3138 18.8037 96.9771 19.08 96.7987C19.362 96.6145 19.7016 96.5224 20.0987 96.5224ZM26.8155 109.956H24.1823V96.5224H26.8155V109.956ZM32.22 109.956H29.5868V96.5224H32.22V109.956ZM37.6245 100.304V109.956H34.9913V100.304H37.6245ZM36.3122 96.5224C36.7036 96.5224 37.0403 96.6145 37.3223 96.7987C37.6043 96.9771 37.7454 97.3138 37.7454 97.8088C37.7454 98.298 37.6043 98.6376 37.3223 98.8275C37.0403 99.0117 36.7036 99.1038 36.3122 99.1038C35.9151 99.1038 35.5755 99.0117 35.2935 98.8275C35.0172 98.6376 34.8791 98.298 34.8791 97.8088C34.8791 97.3138 35.0172 96.9771 35.2935 96.7987C35.5755 96.6145 35.9151 96.5224 36.3122 96.5224ZM44.3499 100.105C45.6449 100.105 46.6377 100.387 47.3284 100.951C48.0191 101.515 48.3644 102.373 48.3644 103.524V109.956H46.5255L46.0161 108.644H45.9471C45.6708 108.989 45.3888 109.271 45.101 109.49C44.8132 109.708 44.4823 109.87 44.1082 109.973C43.734 110.077 43.2794 110.129 42.7441 110.129C42.1743 110.129 41.662 110.019 41.2073 109.801C40.7584 109.582 40.4044 109.248 40.1454 108.799C39.8864 108.344 39.7569 107.769 39.7569 107.072C39.7569 106.048 40.1167 105.294 40.8361 104.81C41.5556 104.321 42.6347 104.051 44.0736 103.999L45.7485 103.947V103.524C45.7485 103.018 45.6161 102.646 45.3514 102.41C45.0866 102.174 44.7183 102.056 44.2463 102.056C43.7801 102.056 43.3225 102.123 42.8736 102.255C42.4246 102.387 41.9757 102.554 41.5268 102.756L40.6548 100.977C41.1671 100.707 41.7397 100.494 42.3728 100.338C43.0117 100.183 43.6707 100.105 44.3499 100.105ZM45.7485 105.484L44.7298 105.518C43.8779 105.541 43.2851 105.694 42.9513 105.976C42.6232 106.258 42.4592 106.629 42.4592 107.09C42.4592 107.493 42.5772 107.78 42.8132 107.953C43.0491 108.12 43.3571 108.203 43.7369 108.203C44.301 108.203 44.7758 108.036 45.1614 107.703C45.5528 107.369 45.7485 106.894 45.7485 106.278V105.484ZM62.4196 100.123C63.5131 100.123 64.339 100.405 64.8973 100.969C65.4614 101.527 65.7434 102.425 65.7434 103.662V109.956H63.1016V104.318C63.1016 103.628 62.9836 103.107 62.7476 102.756C62.5116 102.405 62.1462 102.229 61.6512 102.229C60.9548 102.229 60.4598 102.479 60.1662 102.98C59.8727 103.475 59.7259 104.186 59.7259 105.113V109.956H57.0928V104.318C57.0928 103.858 57.041 103.472 56.9374 103.161C56.8338 102.851 56.6755 102.618 56.4625 102.462C56.2496 102.307 55.9762 102.229 55.6424 102.229C55.1531 102.229 54.7675 102.353 54.4855 102.6C54.2092 102.842 54.0106 103.202 53.8898 103.679C53.7747 104.151 53.7171 104.73 53.7171 105.415V109.956H51.0839V100.304H53.0955L53.4495 101.538H53.5962C53.7919 101.205 54.0365 100.934 54.3301 100.727C54.6294 100.52 54.9574 100.367 55.3143 100.269C55.6711 100.171 56.0337 100.123 56.4021 100.123C57.11 100.123 57.7086 100.238 58.1978 100.468C58.6928 100.698 59.0727 101.055 59.3374 101.538H59.5705C59.8583 101.043 60.2641 100.684 60.7878 100.459C61.3174 100.235 61.8613 100.123 62.4196 100.123ZM75.1883 107.09C75.1883 107.746 75.0329 108.301 74.7221 108.756C74.4171 109.205 73.9595 109.547 73.3494 109.783C72.7393 110.013 71.9796 110.129 71.0702 110.129C70.3968 110.129 69.8184 110.085 69.3349 109.999C68.8572 109.913 68.3737 109.769 67.8845 109.567V107.392C68.4082 107.628 68.9694 107.823 69.568 107.979C70.1723 108.129 70.7018 108.203 71.1565 108.203C71.6688 108.203 72.0343 108.129 72.253 107.979C72.4774 107.823 72.5897 107.622 72.5897 107.375C72.5897 107.213 72.5436 107.07 72.4515 106.943C72.3652 106.811 72.1753 106.664 71.8817 106.503C71.5882 106.336 71.1278 106.12 70.5004 105.855C69.8961 105.602 69.3982 105.346 69.0068 105.087C68.6212 104.828 68.3334 104.523 68.1435 104.172C67.9593 103.815 67.8672 103.363 67.8672 102.816C67.8672 101.924 68.2126 101.253 68.9032 100.805C69.5997 100.35 70.5292 100.123 71.6918 100.123C72.2904 100.123 72.8602 100.183 73.4012 100.304C73.948 100.425 74.5092 100.617 75.0847 100.882L74.2905 102.782C73.8127 102.574 73.3609 102.405 72.935 102.272C72.5149 102.14 72.0861 102.074 71.6486 102.074C71.263 102.074 70.9724 102.125 70.7767 102.229C70.581 102.333 70.4831 102.491 70.4831 102.704C70.4831 102.859 70.5321 102.997 70.6299 103.118C70.7335 103.239 70.9292 103.374 71.217 103.524C71.5105 103.668 71.9393 103.855 72.5033 104.085C73.0501 104.31 73.525 104.546 73.9279 104.793C74.3307 105.035 74.6415 105.337 74.8603 105.7C75.079 106.057 75.1883 106.52 75.1883 107.09ZM79.8762 96.5224V99.6477C79.8762 100.01 79.8647 100.37 79.8417 100.727C79.8244 101.084 79.8014 101.36 79.7726 101.556H79.8762C80.1295 101.159 80.4748 100.822 80.9123 100.546C81.3497 100.264 81.9166 100.123 82.613 100.123C83.6951 100.123 84.5728 100.546 85.2462 101.392C85.9196 102.238 86.2563 103.478 86.2563 105.113C86.2563 106.212 86.1009 107.136 85.7901 107.884C85.4793 108.626 85.0448 109.188 84.4865 109.567C83.9282 109.942 83.2807 110.129 82.544 110.129C81.836 110.129 81.2777 110.002 80.8691 109.749C80.4604 109.495 80.1295 109.211 79.8762 108.894H79.6949L79.2546 109.956H77.2431V96.5224H79.8762ZM81.767 102.229C81.3065 102.229 80.941 102.324 80.6705 102.514C80.4 102.704 80.2014 102.989 80.0748 103.369C79.9539 103.749 79.8878 104.229 79.8762 104.81V105.095C79.8762 106.034 80.0144 106.753 80.2906 107.254C80.5669 107.749 81.0705 107.996 81.8015 107.996C82.3425 107.996 82.7713 107.746 83.0879 107.245C83.4102 106.744 83.5713 106.022 83.5713 105.078C83.5713 104.134 83.4102 103.423 83.0879 102.946C82.7656 102.468 82.3252 102.229 81.767 102.229ZM97.2898 100.304V109.956H95.2696L94.9156 108.721H94.7775C94.5703 109.049 94.3113 109.317 94.0005 109.524C93.6897 109.731 93.3472 109.884 92.9731 109.982C92.599 110.08 92.2105 110.129 91.8076 110.129C91.1169 110.129 90.5154 110.008 90.0032 109.766C89.491 109.519 89.0909 109.136 88.8032 108.618C88.5211 108.1 88.3801 107.426 88.3801 106.598V100.304H91.0133V105.941C91.0133 106.632 91.137 107.153 91.3845 107.504C91.632 107.855 92.0263 108.031 92.5673 108.031C93.1026 108.031 93.5227 107.91 93.8278 107.668C94.1328 107.421 94.3458 107.061 94.4667 106.589C94.5933 106.111 94.6566 105.53 94.6566 104.845V100.304H97.2898ZM105.44 100.123C105.572 100.123 105.725 100.131 105.897 100.148C106.076 100.16 106.22 100.177 106.329 100.2L106.13 102.669C106.044 102.641 105.92 102.62 105.759 102.609C105.604 102.592 105.468 102.583 105.353 102.583C105.014 102.583 104.683 102.626 104.361 102.713C104.044 102.799 103.759 102.94 103.506 103.136C103.253 103.325 103.051 103.579 102.901 103.895C102.758 104.206 102.686 104.589 102.686 105.044V109.956H100.052V100.304H102.047L102.435 101.927H102.565C102.755 101.599 102.991 101.3 103.273 101.029C103.56 100.753 103.886 100.534 104.248 100.373C104.617 100.206 105.014 100.123 105.44 100.123ZM110.905 114.204C109.558 114.204 108.528 113.968 107.814 113.496C107.106 113.029 106.752 112.373 106.752 111.527C106.752 110.946 106.933 110.46 107.296 110.068C107.658 109.677 108.191 109.398 108.893 109.231C108.623 109.116 108.387 108.929 108.185 108.67C107.984 108.405 107.883 108.126 107.883 107.832C107.883 107.464 107.989 107.159 108.202 106.917C108.415 106.669 108.723 106.428 109.126 106.192C108.62 105.973 108.217 105.622 107.917 105.139C107.624 104.655 107.477 104.085 107.477 103.429C107.477 102.727 107.63 102.131 107.935 101.642C108.246 101.147 108.694 100.77 109.282 100.511C109.874 100.252 110.594 100.123 111.44 100.123C111.618 100.123 111.825 100.134 112.061 100.157C112.297 100.18 112.513 100.206 112.709 100.235C112.91 100.264 113.046 100.287 113.115 100.304H116.482V101.642L114.971 102.03C115.109 102.243 115.213 102.471 115.282 102.713C115.351 102.954 115.385 103.21 115.385 103.481C115.385 104.517 115.023 105.326 114.298 105.907C113.578 106.482 112.577 106.77 111.293 106.77C110.988 106.753 110.7 106.73 110.43 106.701C110.297 106.805 110.197 106.914 110.128 107.029C110.059 107.144 110.024 107.265 110.024 107.392C110.024 107.518 110.076 107.625 110.179 107.711C110.289 107.792 110.45 107.855 110.663 107.901C110.882 107.941 111.152 107.962 111.474 107.962H113.115C114.174 107.962 114.98 108.189 115.532 108.644C116.09 109.098 116.37 109.766 116.37 110.647C116.37 111.775 115.898 112.65 114.954 113.271C114.015 113.893 112.666 114.204 110.905 114.204ZM111.017 112.486C111.644 112.486 112.182 112.425 112.631 112.304C113.086 112.189 113.434 112.022 113.676 111.803C113.918 111.591 114.039 111.334 114.039 111.035C114.039 110.793 113.967 110.601 113.823 110.457C113.685 110.319 113.472 110.221 113.184 110.163C112.902 110.106 112.539 110.077 112.096 110.077H110.732C110.41 110.077 110.119 110.129 109.86 110.232C109.607 110.336 109.405 110.48 109.256 110.664C109.106 110.854 109.031 111.073 109.031 111.32C109.031 111.683 109.204 111.968 109.549 112.175C109.9 112.382 110.389 112.486 111.017 112.486ZM111.44 105.164C111.935 105.164 112.297 105.012 112.528 104.707C112.758 104.402 112.873 103.987 112.873 103.464C112.873 102.882 112.752 102.448 112.51 102.16C112.274 101.866 111.918 101.72 111.44 101.72C110.956 101.72 110.594 101.866 110.352 102.16C110.11 102.448 109.989 102.882 109.989 103.464C109.989 103.987 110.107 104.402 110.343 104.707C110.585 105.012 110.951 105.164 111.44 105.164ZM17.2756 116.334V124.501C17.2756 125.37 17.0828 126.156 16.6972 126.858C16.3173 127.554 15.7389 128.107 14.9619 128.516C14.1906 128.924 13.2179 129.129 12.0438 129.129C10.3747 129.129 9.10268 128.703 8.22783 127.851C7.35299 126.999 6.91556 125.871 6.91556 124.467V116.334H9.58327V124.061C9.58327 125.103 9.79623 125.834 10.2221 126.254C10.6481 126.674 11.2783 126.884 12.1129 126.884C12.6999 126.884 13.1748 126.783 13.5374 126.582C13.9057 126.38 14.1762 126.07 14.3489 125.649C14.5216 125.229 14.6079 124.694 14.6079 124.044V116.334H17.2756ZM25.5464 119.123C25.6788 119.123 25.8313 119.131 26.004 119.148C26.1824 119.16 26.3263 119.177 26.4356 119.2L26.2371 121.669C26.1507 121.641 26.027 121.62 25.8658 121.609C25.7104 121.592 25.5752 121.583 25.4601 121.583C25.1205 121.583 24.7895 121.626 24.4672 121.713C24.1507 121.799 23.8658 121.94 23.6125 122.136C23.3593 122.325 23.1578 122.579 23.0082 122.895C22.8643 123.206 22.7923 123.589 22.7923 124.044V128.956H20.1592V119.304H22.1535L22.542 120.927H22.6715C22.8614 120.599 23.0974 120.3 23.3794 120.029C23.6672 119.753 23.9924 119.534 24.355 119.373C24.7233 119.206 25.1205 119.123 25.5464 119.123ZM31.0113 133.204C29.6645 133.204 28.6343 132.968 27.9206 132.496C27.2126 132.029 26.8587 131.373 26.8587 130.527C26.8587 129.946 27.04 129.46 27.4026 129.068C27.7652 128.677 28.2976 128.398 28.9997 128.231C28.7292 128.116 28.4933 127.929 28.2918 127.67C28.0904 127.405 27.9896 127.126 27.9896 126.832C27.9896 126.464 28.0961 126.159 28.3091 125.917C28.522 125.669 28.83 125.428 29.2328 125.192C28.7264 124.973 28.3235 124.622 28.0242 124.139C27.7306 123.655 27.5839 123.085 27.5839 122.429C27.5839 121.727 27.7364 121.131 28.0414 120.642C28.3522 120.147 28.8012 119.77 29.3882 119.511C29.9811 119.252 30.7005 119.123 31.5466 119.123C31.725 119.123 31.9322 119.134 32.1682 119.157C32.4042 119.18 32.62 119.206 32.8157 119.235C33.0171 119.264 33.1524 119.287 33.2215 119.304H36.5885V120.642L35.0776 121.03C35.2158 121.243 35.3194 121.471 35.3884 121.713C35.4575 121.954 35.492 122.21 35.492 122.481C35.492 123.517 35.1294 124.326 34.4042 124.907C33.6848 125.482 32.6833 125.77 31.3998 125.77C31.0948 125.753 30.807 125.73 30.5365 125.701C30.4041 125.805 30.3034 125.914 30.2343 126.029C30.1653 126.144 30.1307 126.265 30.1307 126.392C30.1307 126.518 30.1825 126.625 30.2861 126.711C30.3955 126.792 30.5566 126.855 30.7696 126.901C30.9883 126.941 31.2588 126.962 31.5811 126.962H33.2215C34.2805 126.962 35.0863 127.189 35.6388 127.644C36.1971 128.098 36.4763 128.766 36.4763 129.647C36.4763 130.775 36.0043 131.65 35.0604 132.271C34.1222 132.893 32.7725 133.204 31.0113 133.204ZM31.1236 131.486C31.7509 131.486 32.2891 131.425 32.738 131.304C33.1927 131.189 33.5409 131.022 33.7826 130.803C34.0244 130.591 34.1452 130.334 34.1452 130.035C34.1452 129.793 34.0733 129.601 33.9294 129.457C33.7913 129.319 33.5783 129.221 33.2905 129.163C33.0085 129.106 32.6459 129.077 32.2027 129.077H30.8387C30.5163 129.077 30.2257 129.129 29.9667 129.232C29.7134 129.336 29.512 129.48 29.3623 129.664C29.2127 129.854 29.1379 130.073 29.1379 130.32C29.1379 130.683 29.3105 130.968 29.6559 131.175C30.007 131.382 30.4962 131.486 31.1236 131.486ZM31.5466 124.164C32.0416 124.164 32.4042 124.012 32.6344 123.707C32.8646 123.402 32.9797 122.987 32.9797 122.464C32.9797 121.882 32.8589 121.448 32.6171 121.16C32.3812 120.866 32.0243 120.72 31.5466 120.72C31.0631 120.72 30.7005 120.866 30.4588 121.16C30.2171 121.448 30.0962 121.882 30.0962 122.464C30.0962 122.987 30.2142 123.402 30.4502 123.707C30.6919 124.012 31.0574 124.164 31.5466 124.164ZM42.1656 119.123C43.0578 119.123 43.8261 119.295 44.4708 119.641C45.1154 119.98 45.6132 120.475 45.9643 121.125C46.3154 121.776 46.491 122.57 46.491 123.508V124.786H40.2663C40.2951 125.528 40.5167 126.113 40.9311 126.539C41.3512 126.959 41.9325 127.169 42.675 127.169C43.2909 127.169 43.8549 127.106 44.3672 126.979C44.8794 126.852 45.406 126.662 45.9471 126.409V128.447C45.4694 128.683 44.9686 128.855 44.4449 128.965C43.9269 129.074 43.2966 129.129 42.5541 129.129C41.5872 129.129 40.7296 128.95 39.9814 128.593C39.2389 128.236 38.6547 127.693 38.2288 126.962C37.8087 126.231 37.5986 125.31 37.5986 124.199C37.5986 123.071 37.7885 122.133 38.1684 121.384C38.554 120.63 39.0893 120.066 39.7742 119.692C40.4591 119.312 41.2563 119.123 42.1656 119.123ZM42.1829 120.996C41.6707 120.996 41.2448 121.16 40.9052 121.488C40.5713 121.816 40.3785 122.331 40.3267 123.033H44.0218C44.0161 122.642 43.9441 122.294 43.806 121.989C43.6736 121.684 43.4722 121.442 43.2017 121.264C42.9369 121.085 42.5973 120.996 42.1829 120.996ZM54.1142 119.123C55.1445 119.123 55.9733 119.405 56.6007 119.969C57.228 120.527 57.5417 121.425 57.5417 122.662V128.956H54.9085V123.318C54.9085 122.628 54.7819 122.107 54.5286 121.756C54.2812 121.405 53.8898 121.229 53.3545 121.229C52.5487 121.229 51.9991 121.502 51.7055 122.049C51.412 122.596 51.2652 123.385 51.2652 124.415V128.956H48.632V119.304H50.6436L50.9976 120.538H51.1444C51.3516 120.205 51.6077 119.934 51.9127 119.727C52.2235 119.52 52.566 119.367 52.9401 119.269C53.32 119.171 53.7114 119.123 54.1142 119.123ZM64.3189 127.031C64.6067 127.031 64.8858 127.002 65.1563 126.944C65.4326 126.887 65.706 126.815 65.9765 126.729V128.688C65.6945 128.815 65.3434 128.919 64.9232 128.999C64.5088 129.085 64.0541 129.129 63.5592 129.129C62.9836 129.129 62.4656 129.037 62.0052 128.852C61.5505 128.662 61.1907 128.337 60.926 127.877C60.667 127.411 60.5375 126.763 60.5375 125.934V121.281H59.277V120.167L60.7274 119.287L61.4871 117.249H63.1707V119.304H65.8729V121.281H63.1707V125.934C63.1707 126.303 63.2743 126.579 63.4815 126.763C63.6944 126.941 63.9736 127.031 64.3189 127.031ZM78.0978 118.38C77.5855 118.38 77.1308 118.481 76.7337 118.682C76.3423 118.878 76.0114 119.163 75.7409 119.537C75.4761 119.911 75.2747 120.363 75.1365 120.892C74.9984 121.422 74.9293 122.018 74.9293 122.679C74.9293 123.572 75.0387 124.334 75.2574 124.967C75.4819 125.595 75.8272 126.075 76.2934 126.409C76.7596 126.737 77.3611 126.901 78.0978 126.901C78.61 126.901 79.1223 126.844 79.6345 126.729C80.1525 126.613 80.7137 126.449 81.318 126.236V128.481C80.7597 128.711 80.2101 128.875 79.669 128.973C79.128 129.077 78.5208 129.129 77.8474 129.129C76.5466 129.129 75.4761 128.861 74.6358 128.326C73.8012 127.785 73.1825 127.031 72.7796 126.064C72.3767 125.091 72.1753 123.957 72.1753 122.662C72.1753 121.707 72.3048 120.832 72.5638 120.038C72.8228 119.243 73.2026 118.556 73.7034 117.974C74.2041 117.393 74.8228 116.944 75.5596 116.627C76.2963 116.311 77.1423 116.153 78.0978 116.153C78.7251 116.153 79.3525 116.233 79.9798 116.394C80.613 116.55 81.2173 116.766 81.7929 117.042L80.9295 119.217C80.4576 118.993 79.9827 118.797 79.505 118.63C79.0273 118.463 78.5582 118.38 78.0978 118.38ZM87.7585 119.105C89.0535 119.105 90.0464 119.387 90.737 119.951C91.4277 120.515 91.773 121.373 91.773 122.524V128.956H89.9341L89.4248 127.644H89.3557C89.0794 127.989 88.7974 128.271 88.5096 128.49C88.2218 128.708 87.8909 128.87 87.5168 128.973C87.1427 129.077 86.688 129.129 86.1527 129.129C85.5829 129.129 85.0707 129.019 84.616 128.801C84.167 128.582 83.8131 128.248 83.5541 127.799C83.2951 127.344 83.1656 126.769 83.1656 126.072C83.1656 125.048 83.5253 124.294 84.2447 123.81C84.9642 123.321 86.0434 123.051 87.4823 122.999L89.1571 122.947V122.524C89.1571 122.018 89.0248 121.646 88.76 121.41C88.4952 121.174 88.1269 121.056 87.6549 121.056C87.1887 121.056 86.7312 121.123 86.2822 121.255C85.8333 121.387 85.3843 121.554 84.9354 121.756L84.0634 119.977C84.5757 119.707 85.1484 119.494 85.7815 119.338C86.4204 119.183 87.0794 119.105 87.7585 119.105ZM89.1571 124.484L88.1384 124.518C87.2866 124.541 86.6937 124.694 86.3599 124.976C86.0318 125.258 85.8678 125.629 85.8678 126.09C85.8678 126.493 85.9858 126.78 86.2218 126.953C86.4578 127.12 86.7657 127.203 87.1456 127.203C87.7096 127.203 88.1844 127.036 88.5701 126.703C88.9614 126.369 89.1571 125.894 89.1571 125.278V124.484ZM99.8798 119.123C100.012 119.123 100.165 119.131 100.337 119.148C100.516 119.16 100.66 119.177 100.769 119.2L100.57 121.669C100.484 121.641 100.36 121.62 100.199 121.609C100.044 121.592 99.9086 121.583 99.7934 121.583C99.4539 121.583 99.1229 121.626 98.8006 121.713C98.4841 121.799 98.1992 121.94 97.9459 122.136C97.6927 122.325 97.4912 122.579 97.3416 122.895C97.1977 123.206 97.1257 123.589 97.1257 124.044V128.956H94.4926V119.304H96.4869L96.8754 120.927H97.0049C97.1948 120.599 97.4308 120.3 97.7128 120.029C98.0006 119.753 98.3258 119.534 98.6884 119.373C99.0567 119.206 99.4539 119.123 99.8798 119.123ZM106.502 119.123C107.394 119.123 108.162 119.295 108.807 119.641C109.451 119.98 109.949 120.475 110.3 121.125C110.651 121.776 110.827 122.57 110.827 123.508V124.786H104.602C104.631 125.528 104.853 126.113 105.267 126.539C105.687 126.959 106.268 127.169 107.011 127.169C107.627 127.169 108.191 127.106 108.703 126.979C109.215 126.852 109.742 126.662 110.283 126.409V128.447C109.805 128.683 109.305 128.855 108.781 128.965C108.263 129.074 107.633 129.129 106.89 129.129C105.923 129.129 105.066 128.95 104.317 128.593C103.575 128.236 102.991 127.693 102.565 126.962C102.145 126.231 101.935 125.31 101.935 124.199C101.935 123.071 102.124 122.133 102.504 121.384C102.89 120.63 103.425 120.066 104.11 119.692C104.795 119.312 105.592 119.123 106.502 119.123ZM106.519 120.996C106.007 120.996 105.581 121.16 105.241 121.488C104.907 121.816 104.714 122.331 104.663 123.033H108.358C108.352 122.642 108.28 122.294 108.142 121.989C108.01 121.684 107.808 121.442 107.538 121.264C107.273 121.085 106.933 120.996 106.519 120.996Z" fill="#004A7C"/>
<path d="M58.4422 86.2174C81.1459 86.2174 99.5509 67.8124 99.5509 45.1087C99.5509 22.405 81.1459 4 58.4422 4C35.7385 4 17.3335 22.405 17.3335 45.1087C17.3335 67.8124 35.7385 86.2174 58.4422 86.2174Z" fill="#E8F1F5" stroke="#005691" stroke-width="6.18841" stroke-miterlimit="10"/>
<path d="M27.9844 25.8192C31.1338 25.821 34.1944 26.8637 36.6898 28.7852C39.1853 30.7066 40.9757 33.399 41.7824 36.4433L45.9524 51.9545L51.3707 72.1935C48.2282 72.1896 45.1746 71.1499 42.6826 69.2353C40.1906 67.3207 38.3993 64.638 37.5859 61.6026L27.9844 25.8192Z" fill="#005691"/>
<path d="M88.9008 25.8192L79.3059 61.6291C78.4945 64.6597 76.7056 67.3378 74.2168 69.248C71.728 71.1581 68.6784 72.1935 65.541 72.1935L70.9593 51.9877L75.1426 36.3769C75.9539 33.3481 77.742 30.6716 80.2296 28.7627C82.7172 26.8538 85.7652 25.8191 88.9008 25.8192Z" fill="#009AB9"/>
<path d="M52.9835 25.8192L58.435 46.1578L51.4629 72.1935H51.37L45.9517 51.9545L52.9503 25.8192" fill="#157DC3"/>
<path d="M52.9839 25.8192C56.1324 25.8147 59.1942 26.8506 61.6931 28.766C64.192 30.6813 65.988 33.3686 66.8019 36.4101L70.9785 51.9878L65.5403 72.1935H65.4075L58.4354 46.1644L52.9839 25.8192Z" fill="#004A7C"/>
</svg>
