<svg xmlns="http://www.w3.org/2000/svg" viewBox="0 0 130.82 130.82"><defs><style>.cls-1{fill:#e8f1f5;stroke:#005691;stroke-miterlimit:10;stroke-width:7px;}.cls-2{fill:#005691;}.cls-3{fill:#009ab9;}.cls-4{fill:#157dc3;}.cls-5{fill:#004a7c;}</style></defs><g id="Layer_2" data-name="Layer 2"><g id="Layer_1-2" data-name="Layer 1"><circle class="cls-1" cx="65.41" cy="65.41" r="61.91"/><path class="cls-2" d="M19.54,36.36a21.51,21.51,0,0,1,20.78,16L46.6,75.72l8.16,30.48h0A21.52,21.52,0,0,1,34,90.25L19.54,36.36"/><path class="cls-3" d="M111.28,36.36,96.83,90.29A21.46,21.46,0,0,1,76.1,106.2h0l8.16-30.43,6.3-23.51a21.45,21.45,0,0,1,20.72-15.9"/><polyline class="cls-4" points="57.19 36.36 65.4 66.99 54.9 106.2 54.76 106.2 46.6 75.72 57.14 36.36"/><path class="cls-5" d="M57.19,36.36A21.51,21.51,0,0,1,78,52.31l6.29,23.46L76.1,106.2h-.2L65.4,67,57.19,36.36"/></g></g></svg>