<svg width="310" height="91" viewBox="0 0 310 91" fill="none" xmlns="http://www.w3.org/2000/svg">
<path d="M126.026 21.67L120.09 45H114.457L111.297 32.7446C111.233 32.5105 111.148 32.1541 111.042 31.6754C110.935 31.1967 110.824 30.6754 110.707 30.1116C110.59 29.5371 110.483 28.9998 110.387 28.4998C110.302 27.9892 110.244 27.5849 110.212 27.2871C110.18 27.5849 110.116 27.9839 110.02 28.4839C109.935 28.9839 109.834 29.5158 109.717 30.0796C109.611 30.6435 109.504 31.1701 109.398 31.6594C109.292 32.1488 109.207 32.5212 109.143 32.7765L105.999 45H100.382L94.4298 21.67H99.2969L102.281 34.4042C102.366 34.7871 102.462 35.2446 102.568 35.7765C102.685 36.3084 102.797 36.8669 102.903 37.4521C103.02 38.0265 103.121 38.585 103.207 39.1276C103.302 39.6595 103.371 40.1223 103.414 40.5159C103.467 40.1117 103.536 39.6436 103.621 39.1116C103.707 38.5691 103.797 38.0212 103.893 37.468C103.999 36.9042 104.105 36.3829 104.212 35.9042C104.318 35.4254 104.414 35.0371 104.499 34.7393L107.898 21.67H112.574L115.973 34.7393C116.047 35.0265 116.132 35.4148 116.228 35.9042C116.334 36.3829 116.441 36.9042 116.547 37.468C116.653 38.0318 116.749 38.585 116.834 39.1276C116.93 39.6595 116.999 40.1223 117.042 40.5159C117.116 39.984 117.217 39.3404 117.345 38.585C117.483 37.8191 117.627 37.0584 117.776 36.3031C117.935 35.5478 118.074 34.9148 118.191 34.4042L121.159 21.67H126.026ZM133.446 27.1594V45H128.579V27.1594H133.446ZM131.021 20.17C131.744 20.17 132.366 20.3402 132.888 20.6806C133.409 21.0104 133.67 21.6328 133.67 22.5477C133.67 23.4519 133.409 24.0796 132.888 24.4307C132.366 24.7711 131.744 24.9413 131.021 24.9413C130.287 24.9413 129.659 24.7711 129.138 24.4307C128.627 24.0796 128.372 23.4519 128.372 22.5477C128.372 21.6328 128.627 21.0104 129.138 20.6806C129.659 20.3402 130.287 20.17 131.021 20.17ZM143.436 45H138.569V20.17H143.436V45ZM153.425 45H148.558V20.17H153.425V45ZM163.415 27.1594V45H158.547V27.1594H163.415ZM160.989 20.17C161.712 20.17 162.335 20.3402 162.856 20.6806C163.377 21.0104 163.638 21.6328 163.638 22.5477C163.638 23.4519 163.377 24.0796 162.856 24.4307C162.335 24.7711 161.712 24.9413 160.989 24.9413C160.255 24.9413 159.627 24.7711 159.106 24.4307C158.595 24.0796 158.34 23.4519 158.34 22.5477C158.34 21.6328 158.595 21.0104 159.106 20.6806C159.627 20.3402 160.255 20.17 160.989 20.17ZM175.845 26.7924C178.239 26.7924 180.074 27.3137 181.351 28.3562C182.627 29.3988 183.266 30.9839 183.266 33.1116V45H179.867L178.925 42.5744H178.798C178.287 43.2127 177.766 43.734 177.234 44.1383C176.702 44.5425 176.09 44.8404 175.399 45.0319C174.707 45.2234 173.867 45.3192 172.877 45.3192C171.824 45.3192 170.877 45.117 170.037 44.7128C169.207 44.3085 168.553 43.6915 168.074 42.8617C167.595 42.0212 167.356 40.9574 167.356 39.6702C167.356 37.7765 168.021 36.3829 169.351 35.4893C170.681 34.585 172.675 34.085 175.335 33.9893L178.431 33.8935V33.1116C178.431 32.1754 178.186 31.4892 177.697 31.0531C177.207 30.6169 176.526 30.3988 175.654 30.3988C174.792 30.3988 173.947 30.5211 173.117 30.7658C172.287 31.0105 171.457 31.319 170.627 31.6914L169.016 28.4041C169.962 27.9041 171.021 27.5105 172.191 27.2232C173.372 26.936 174.59 26.7924 175.845 26.7924ZM178.431 36.734L176.548 36.7978C174.973 36.8403 173.877 37.1223 173.26 37.6435C172.654 38.1648 172.351 38.851 172.351 39.7021C172.351 40.4468 172.569 40.9787 173.005 41.2978C173.441 41.6064 174.01 41.7606 174.713 41.7606C175.755 41.7606 176.633 41.4521 177.346 40.8351C178.069 40.218 178.431 39.3404 178.431 38.2021V36.734ZM209.245 26.8243C211.266 26.8243 212.793 27.3456 213.825 28.3881C214.867 29.4201 215.388 31.0797 215.388 33.3669V45H210.505V34.5797C210.505 33.3031 210.287 32.3403 209.851 31.6914C209.415 31.0424 208.739 30.718 207.825 30.718C206.537 30.718 205.622 31.1807 205.08 32.1063C204.537 33.0212 204.266 34.335 204.266 36.0478V45H199.399V34.5797C199.399 33.7286 199.303 33.0158 199.112 32.4414C198.92 31.8669 198.628 31.436 198.234 31.1488C197.84 30.8616 197.335 30.718 196.718 30.718C195.814 30.718 195.101 30.9467 194.58 31.4041C194.069 31.8509 193.702 32.5158 193.479 33.3988C193.266 34.2712 193.159 35.3403 193.159 36.6063V45H188.292V27.1594H192.011L192.665 29.4413H192.936C193.298 28.8243 193.75 28.3243 194.292 27.9413C194.846 27.5583 195.452 27.2764 196.112 27.0956C196.771 26.9147 197.441 26.8243 198.122 26.8243C199.431 26.8243 200.537 27.0371 201.441 27.4626C202.356 27.8881 203.059 28.5477 203.548 29.4413H203.979C204.511 28.5264 205.261 27.8615 206.229 27.4466C207.207 27.0317 208.213 26.8243 209.245 26.8243ZM232.846 39.7021C232.846 40.9149 232.559 41.9415 231.984 42.7819C231.42 43.6117 230.575 44.2447 229.447 44.6808C228.319 45.1064 226.915 45.3192 225.234 45.3192C223.99 45.3192 222.92 45.2394 222.027 45.0798C221.144 44.9202 220.25 44.6543 219.346 44.2819V40.2606C220.314 40.6968 221.351 41.0585 222.458 41.3457C223.575 41.6223 224.553 41.7606 225.394 41.7606C226.341 41.7606 227.016 41.6223 227.42 41.3457C227.835 41.0585 228.043 40.6861 228.043 40.2287C228.043 39.9308 227.958 39.6648 227.787 39.4308C227.628 39.1861 227.277 38.9148 226.734 38.617C226.192 38.3084 225.341 37.9095 224.181 37.4201C223.064 36.9521 222.144 36.4786 221.42 35.9999C220.708 35.5212 220.176 34.9574 219.825 34.3084C219.484 33.6488 219.314 32.8137 219.314 31.8031C219.314 30.1541 219.952 28.9147 221.229 28.0849C222.516 27.2445 224.234 26.8243 226.383 26.8243C227.49 26.8243 228.543 26.936 229.543 27.1594C230.553 27.3828 231.591 27.7392 232.655 28.2286L231.186 31.7392C230.303 31.3563 229.468 31.0424 228.681 30.7977C227.904 30.5531 227.112 30.4307 226.303 30.4307C225.591 30.4307 225.053 30.5265 224.692 30.718C224.33 30.9094 224.149 31.202 224.149 31.5956C224.149 31.8829 224.24 32.1382 224.42 32.3616C224.612 32.585 224.974 32.835 225.506 33.1116C226.048 33.3775 226.841 33.7233 227.883 34.1488C228.894 34.5637 229.772 34.9999 230.516 35.4574C231.261 35.9042 231.835 36.4627 232.24 37.1329C232.644 37.7925 232.846 38.6489 232.846 39.7021ZM241.511 20.17V25.9466C241.511 26.6168 241.49 27.2817 241.447 27.9413C241.415 28.6009 241.373 29.1116 241.32 29.4733H241.511C241.979 28.7392 242.617 28.1169 243.426 27.6062C244.234 27.0849 245.282 26.8243 246.57 26.8243C248.57 26.8243 250.192 27.6062 251.437 29.1701C252.681 30.7339 253.304 33.0265 253.304 36.0478C253.304 38.0797 253.016 39.7872 252.442 41.1702C251.867 42.5425 251.064 43.5798 250.032 44.2819C249 44.9734 247.804 45.3192 246.442 45.3192C245.133 45.3192 244.101 45.0851 243.346 44.617C242.591 44.1489 241.979 43.6223 241.511 43.0372H241.176L240.362 45H236.644V20.17H241.511ZM245.006 30.718C244.155 30.718 243.479 30.8935 242.979 31.2446C242.479 31.5956 242.112 32.1222 241.878 32.8244C241.655 33.5265 241.532 34.4148 241.511 35.4893V36.0159C241.511 37.7499 241.766 39.0797 242.277 40.0053C242.788 40.9202 243.718 41.3776 245.07 41.3776C246.07 41.3776 246.862 40.9149 247.447 39.9893C248.043 39.0638 248.341 37.7287 248.341 35.984C248.341 34.2393 248.043 32.9254 247.447 32.0424C246.851 31.1594 246.038 30.718 245.006 30.718ZM273.698 27.1594V45H269.963L269.309 42.7181H269.054C268.671 43.3245 268.192 43.8191 267.618 44.2021C267.043 44.5851 266.41 44.867 265.719 45.0479C265.027 45.2287 264.309 45.3192 263.564 45.3192C262.288 45.3192 261.176 45.0957 260.229 44.6489C259.282 44.1915 258.543 43.484 258.011 42.5266C257.49 41.5691 257.229 40.3244 257.229 38.7925V27.1594H262.096V37.5797C262.096 38.8563 262.325 39.8191 262.783 40.468C263.24 41.117 263.969 41.4415 264.969 41.4415C265.958 41.4415 266.735 41.218 267.299 40.7712C267.862 40.3138 268.256 39.6489 268.479 38.7765C268.713 37.8935 268.83 36.8191 268.83 35.5531V27.1594H273.698ZM288.761 26.8243C289.006 26.8243 289.288 26.8403 289.607 26.8722C289.937 26.8934 290.203 26.9254 290.405 26.9679L290.038 31.5318C289.878 31.4786 289.65 31.4414 289.352 31.4201C289.065 31.3882 288.815 31.3722 288.602 31.3722C287.974 31.3722 287.363 31.452 286.767 31.6116C286.182 31.7712 285.655 32.0318 285.187 32.3935C284.719 32.7446 284.347 33.2127 284.07 33.7978C283.804 34.3722 283.671 35.0797 283.671 35.9201V45H278.804V27.1594H282.49L283.208 30.1594H283.448C283.799 29.553 284.235 28.9998 284.756 28.4998C285.288 27.9892 285.889 27.5849 286.559 27.2871C287.24 26.9786 287.974 26.8243 288.761 26.8243ZM298.863 52.8511C296.373 52.8511 294.469 52.415 293.15 51.5426C291.841 50.6809 291.187 49.4681 291.187 47.9043C291.187 46.8298 291.522 45.9309 292.192 45.2074C292.863 44.484 293.847 43.9681 295.145 43.6596C294.645 43.4468 294.208 43.101 293.836 42.6223C293.464 42.133 293.277 41.617 293.277 41.0744C293.277 40.3936 293.474 39.8297 293.868 39.3829C294.262 38.9255 294.831 38.4787 295.575 38.0425C294.639 37.6382 293.894 36.9893 293.341 36.0957C292.799 35.202 292.527 34.1488 292.527 32.9361C292.527 31.6382 292.809 30.5371 293.373 29.6328C293.948 28.7179 294.777 28.0211 295.863 27.5424C296.958 27.0637 298.288 26.8243 299.852 26.8243C300.182 26.8243 300.565 26.8456 301.001 26.8881C301.437 26.9307 301.836 26.9786 302.198 27.0317C302.57 27.0849 302.82 27.1275 302.948 27.1594H309.171V29.6328L306.379 30.3509C306.634 30.7445 306.825 31.1648 306.953 31.6116C307.081 32.0584 307.145 32.5318 307.145 33.0318C307.145 34.9467 306.474 36.4414 305.134 37.5159C303.804 38.5797 301.953 39.1116 299.581 39.1116C299.017 39.0797 298.485 39.0372 297.985 38.984C297.74 39.1755 297.554 39.3776 297.426 39.5904C297.299 39.8031 297.235 40.0265 297.235 40.2606C297.235 40.4946 297.331 40.6914 297.522 40.851C297.724 41 298.022 41.117 298.416 41.2021C298.82 41.2766 299.32 41.3138 299.916 41.3138H302.948C304.905 41.3138 306.395 41.734 307.416 42.5744C308.448 43.4149 308.964 44.6489 308.964 46.2766C308.964 48.3617 308.091 49.9788 306.347 51.1277C304.613 52.2767 302.118 52.8511 298.863 52.8511ZM299.07 49.6756C300.23 49.6756 301.224 49.5639 302.054 49.3405C302.895 49.1277 303.538 48.8192 303.985 48.4149C304.432 48.0213 304.655 47.5479 304.655 46.9947C304.655 46.5479 304.522 46.1915 304.256 45.9255C304.001 45.6702 303.607 45.4894 303.075 45.383C302.554 45.2766 301.884 45.2234 301.065 45.2234H298.543C297.948 45.2234 297.41 45.3192 296.932 45.5106C296.464 45.7021 296.091 45.9681 295.815 46.3085C295.538 46.6596 295.4 47.0638 295.4 47.5213C295.4 48.1915 295.719 48.7181 296.357 49.1011C297.006 49.4841 297.91 49.6756 299.07 49.6756ZM299.852 36.1435C300.767 36.1435 301.437 35.8616 301.863 35.2978C302.288 34.7339 302.501 33.968 302.501 32.9999C302.501 31.9254 302.278 31.1222 301.831 30.5903C301.395 30.0477 300.735 29.7765 299.852 29.7765C298.958 29.7765 298.288 30.0477 297.841 30.5903C297.395 31.1222 297.171 31.9254 297.171 32.9999C297.171 33.968 297.389 34.7339 297.825 35.2978C298.272 35.8616 298.948 36.1435 299.852 36.1435ZM125.802 47.67V62.7659C125.802 64.3723 125.446 65.8244 124.733 67.1223C124.031 68.4095 122.962 69.4308 121.526 70.1862C120.1 70.9415 118.302 71.3192 116.132 71.3192C113.047 71.3192 110.696 70.5319 109.079 68.9574C107.462 67.3829 106.653 65.2978 106.653 62.702V47.67H111.584V61.952C111.584 63.8776 111.978 65.2287 112.765 66.0053C113.552 66.7819 114.717 67.1702 116.26 67.1702C117.345 67.1702 118.223 66.984 118.893 66.6117C119.574 66.2393 120.074 65.6648 120.393 64.8882C120.712 64.1116 120.872 63.1223 120.872 61.9201V47.67H125.802ZM141.09 52.8243C141.335 52.8243 141.616 52.8403 141.936 52.8722C142.265 52.8934 142.531 52.9254 142.733 52.9679L142.366 57.5318C142.207 57.4786 141.978 57.4414 141.68 57.4201C141.393 57.3882 141.143 57.3722 140.93 57.3722C140.303 57.3722 139.691 57.452 139.095 57.6116C138.51 57.7712 137.983 58.0318 137.515 58.3935C137.047 58.7446 136.675 59.2127 136.398 59.7978C136.132 60.3722 135.999 61.0797 135.999 61.9201V71H131.132V53.1594H134.819L135.537 56.1594H135.776C136.127 55.553 136.563 54.9998 137.084 54.4998C137.616 53.9892 138.217 53.5849 138.888 53.2871C139.569 52.9786 140.303 52.8243 141.09 52.8243ZM151.191 78.8511C148.702 78.8511 146.797 78.415 145.478 77.5426C144.17 76.6809 143.515 75.4681 143.515 73.9043C143.515 72.8298 143.851 71.9309 144.521 71.2074C145.191 70.484 146.175 69.9681 147.473 69.6596C146.973 69.4468 146.537 69.101 146.164 68.6223C145.792 68.133 145.606 67.617 145.606 67.0744C145.606 66.3936 145.803 65.8297 146.196 65.3829C146.59 64.9255 147.159 64.4787 147.904 64.0425C146.968 63.6382 146.223 62.9893 145.67 62.0957C145.127 61.202 144.856 60.1488 144.856 58.9361C144.856 57.6382 145.138 56.5371 145.702 55.6328C146.276 54.7179 147.106 54.0211 148.191 53.5424C149.287 53.0637 150.617 52.8243 152.18 52.8243C152.51 52.8243 152.893 52.8456 153.329 52.8881C153.766 52.9307 154.164 52.9786 154.526 53.0317C154.898 53.0849 155.148 53.1275 155.276 53.1594H161.5V55.6328L158.707 56.3509C158.962 56.7445 159.154 57.1648 159.282 57.6116C159.409 58.0584 159.473 58.5318 159.473 59.0318C159.473 60.9467 158.803 62.4414 157.462 63.5159C156.133 64.5797 154.281 65.1116 151.909 65.1116C151.345 65.0797 150.813 65.0372 150.313 64.984C150.069 65.1755 149.882 65.3776 149.755 65.5904C149.627 65.8031 149.563 66.0265 149.563 66.2606C149.563 66.4946 149.659 66.6914 149.851 66.851C150.053 67 150.351 67.117 150.744 67.2021C151.148 67.2766 151.648 67.3138 152.244 67.3138H155.276C157.234 67.3138 158.723 67.734 159.744 68.5744C160.776 69.4149 161.292 70.6489 161.292 72.2766C161.292 74.3617 160.42 75.9788 158.675 77.1277C156.941 78.2767 154.446 78.8511 151.191 78.8511ZM151.398 75.6756C152.558 75.6756 153.553 75.5639 154.383 75.3405C155.223 75.1277 155.867 74.8192 156.313 74.4149C156.76 74.0213 156.984 73.5479 156.984 72.9947C156.984 72.5479 156.851 72.1915 156.585 71.9255C156.329 71.6702 155.936 71.4894 155.404 71.383C154.883 71.2766 154.212 71.2234 153.393 71.2234H150.872C150.276 71.2234 149.739 71.3192 149.26 71.5106C148.792 71.7021 148.42 71.9681 148.143 72.3085C147.867 72.6596 147.728 73.0638 147.728 73.5213C147.728 74.1915 148.047 74.7181 148.686 75.1011C149.335 75.4841 150.239 75.6756 151.398 75.6756ZM152.18 62.1435C153.095 62.1435 153.766 61.8616 154.191 61.2978C154.617 60.7339 154.829 59.968 154.829 58.9999C154.829 57.9254 154.606 57.1222 154.159 56.5903C153.723 56.0477 153.063 55.7765 152.18 55.7765C151.287 55.7765 150.617 56.0477 150.17 56.5903C149.723 57.1222 149.5 57.9254 149.5 58.9999C149.5 59.968 149.718 60.7339 150.154 61.2978C150.601 61.8616 151.276 62.1435 152.18 62.1435ZM171.808 52.8243C173.457 52.8243 174.877 53.1434 176.069 53.7818C177.26 54.4094 178.181 55.3243 178.83 56.5265C179.479 57.7286 179.803 59.1967 179.803 60.9308V63.2925H168.298C168.351 64.6648 168.76 65.7446 169.526 66.5319C170.303 67.3085 171.377 67.6968 172.75 67.6968C173.888 67.6968 174.931 67.5798 175.877 67.3457C176.824 67.1117 177.798 66.7606 178.798 66.2925V70.0585C177.915 70.4947 176.989 70.8138 176.021 71.016C175.064 71.2181 173.899 71.3192 172.526 71.3192C170.739 71.3192 169.154 70.9894 167.771 70.3298C166.399 69.6702 165.319 68.6649 164.532 67.3138C163.755 65.9627 163.367 64.2606 163.367 62.2074C163.367 60.1222 163.718 58.3882 164.42 57.0052C165.133 55.6116 166.122 54.569 167.388 53.8775C168.654 53.1754 170.127 52.8243 171.808 52.8243ZM171.84 56.2871C170.893 56.2871 170.106 56.5903 169.478 57.1967C168.861 57.8031 168.505 58.7552 168.409 60.0531H175.239C175.228 59.3297 175.095 58.6861 174.84 58.1222C174.595 57.5584 174.223 57.1116 173.723 56.7818C173.234 56.452 172.606 56.2871 171.84 56.2871ZM193.894 52.8243C195.798 52.8243 197.33 53.3456 198.489 54.3881C199.649 55.4201 200.229 57.0797 200.229 59.3669V71H195.362V60.5797C195.362 59.3031 195.128 58.3403 194.66 57.6914C194.202 57.0424 193.479 56.718 192.489 56.718C191 56.718 189.984 57.2233 189.441 58.2339C188.899 59.2446 188.628 60.702 188.628 62.6063V71H183.76V53.1594H187.479L188.133 55.4413H188.404C188.787 54.8243 189.261 54.3243 189.824 53.9413C190.399 53.5583 191.032 53.2764 191.723 53.0956C192.425 52.9147 193.149 52.8243 193.894 52.8243ZM212.755 67.4415C213.287 67.4415 213.803 67.3883 214.303 67.2819C214.814 67.1755 215.319 67.0425 215.819 66.8829V70.5053C215.298 70.7394 214.649 70.9309 213.872 71.0798C213.106 71.2394 212.266 71.3192 211.351 71.3192C210.287 71.3192 209.33 71.1489 208.479 70.8085C207.638 70.4574 206.973 69.8564 206.484 69.0053C206.005 68.1436 205.766 66.9468 205.766 65.4148V56.8137H203.436V54.7552L206.117 53.1275L207.521 49.3615H210.633V53.1594H215.628V56.8137H210.633V65.4148C210.633 66.0957 210.825 66.6063 211.208 66.9468C211.601 67.2766 212.117 67.4415 212.755 67.4415ZM238.224 51.4519C237.277 51.4519 236.436 51.6381 235.702 52.0105C234.979 52.3722 234.367 52.8988 233.867 53.5903C233.378 54.2818 233.006 55.1169 232.75 56.0956C232.495 57.0743 232.367 58.1754 232.367 59.3988C232.367 61.0478 232.569 62.4574 232.974 63.6276C233.389 64.7872 234.027 65.6755 234.889 66.2925C235.75 66.8989 236.862 67.2021 238.224 67.2021C239.171 67.2021 240.117 67.0957 241.064 66.8829C242.022 66.6702 243.059 66.367 244.176 65.9734V70.1223C243.144 70.5479 242.128 70.8511 241.128 71.0319C240.128 71.2234 239.006 71.3192 237.761 71.3192C235.357 71.3192 233.378 70.8245 231.825 69.8351C230.282 68.8351 229.139 67.4415 228.394 65.6542C227.649 63.8563 227.277 61.7606 227.277 59.3669C227.277 57.6009 227.516 55.9839 227.995 54.5158C228.474 53.0477 229.176 51.7764 230.101 50.7019C231.027 49.6275 232.171 48.7977 233.532 48.2126C234.894 47.6274 236.458 47.3349 238.224 47.3349C239.383 47.3349 240.543 47.4838 241.703 47.7817C242.873 48.0689 243.99 48.4679 245.054 48.9785L243.458 52.9998C242.585 52.5849 241.708 52.2232 240.825 51.9147C239.942 51.6062 239.075 51.4519 238.224 51.4519ZM256.08 52.7924C258.474 52.7924 260.309 53.3137 261.586 54.3562C262.862 55.3988 263.501 56.9839 263.501 59.1116V71H260.102L259.16 68.5744H259.032C258.522 69.2127 258.001 69.734 257.469 70.1383C256.937 70.5425 256.325 70.8404 255.633 71.0319C254.942 71.2234 254.102 71.3192 253.112 71.3192C252.059 71.3192 251.112 71.117 250.272 70.7128C249.442 70.3085 248.788 69.6915 248.309 68.8617C247.83 68.0212 247.591 66.9574 247.591 65.6702C247.591 63.7765 248.256 62.3829 249.586 61.4893C250.915 60.585 252.91 60.085 255.57 59.9893L258.665 59.8935V59.1116C258.665 58.1754 258.421 57.4892 257.931 57.0531C257.442 56.6169 256.761 56.3988 255.889 56.3988C255.027 56.3988 254.181 56.5211 253.352 56.7658C252.522 57.0105 251.692 57.319 250.862 57.6914L249.25 54.4041C250.197 53.9041 251.256 53.5105 252.426 53.2232C253.607 52.936 254.825 52.7924 256.08 52.7924ZM258.665 62.734L256.782 62.7978C255.208 62.8403 254.112 63.1223 253.495 63.6435C252.889 64.1648 252.586 64.851 252.586 65.7021C252.586 66.4468 252.804 66.9787 253.24 67.2978C253.676 67.6064 254.245 67.7606 254.947 67.7606C255.99 67.7606 256.868 67.4521 257.58 66.8351C258.304 66.218 258.665 65.3404 258.665 64.2021V62.734ZM278.485 52.8243C278.729 52.8243 279.011 52.8403 279.331 52.8722C279.66 52.8934 279.926 52.9254 280.128 52.9679L279.761 57.5318C279.602 57.4786 279.373 57.4414 279.075 57.4201C278.788 57.3882 278.538 57.3722 278.325 57.3722C277.698 57.3722 277.086 57.452 276.49 57.6116C275.905 57.7712 275.378 58.0318 274.91 58.3935C274.442 58.7446 274.07 59.2127 273.793 59.7978C273.527 60.3722 273.394 61.0797 273.394 61.9201V71H268.527V53.1594H272.213L272.932 56.1594H273.171C273.522 55.553 273.958 54.9998 274.479 54.4998C275.011 53.9892 275.612 53.5849 276.283 53.2871C276.963 52.9786 277.698 52.8243 278.485 52.8243ZM290.724 52.8243C292.373 52.8243 293.793 53.1434 294.985 53.7818C296.176 54.4094 297.097 55.3243 297.746 56.5265C298.395 57.7286 298.719 59.1967 298.719 60.9308V63.2925H287.214C287.267 64.6648 287.676 65.7446 288.442 66.5319C289.219 67.3085 290.293 67.6968 291.666 67.6968C292.804 67.6968 293.847 67.5798 294.793 67.3457C295.74 67.1117 296.714 66.7606 297.714 66.2925V70.0585C296.831 70.4947 295.905 70.8138 294.937 71.016C293.98 71.2181 292.815 71.3192 291.442 71.3192C289.655 71.3192 288.07 70.9894 286.687 70.3298C285.315 69.6702 284.235 68.6649 283.448 67.3138C282.671 65.9627 282.283 64.2606 282.283 62.2074C282.283 60.1222 282.634 58.3882 283.336 57.0052C284.049 55.6116 285.038 54.569 286.304 53.8775C287.57 53.1754 289.043 52.8243 290.724 52.8243ZM290.756 56.2871C289.809 56.2871 289.022 56.5903 288.394 57.1967C287.777 57.8031 287.421 58.7552 287.325 60.0531H294.155C294.144 59.3297 294.012 58.6861 293.756 58.1222C293.512 57.5584 293.139 57.1116 292.639 56.7818C292.15 56.452 291.522 56.2871 290.756 56.2871Z" fill="#004A7C"/>
<path d="M44.442 87.1942C67.1457 87.1942 85.5506 68.5706 85.5506 45.5971C85.5506 22.6237 67.1457 4 44.442 4C21.7382 4 3.33325 22.6237 3.33325 45.5971C3.33325 68.5706 21.7382 87.1942 44.442 87.1942Z" fill="#E8F1F5" stroke="#005691" stroke-width="6.18841" stroke-miterlimit="10"/>
<path d="M13.9839 26.0784C17.1333 26.0802 20.1939 27.1353 22.6894 29.0796C25.1848 31.0238 26.9752 33.7482 27.782 36.8287L31.9519 52.5242L37.3702 73.0036C34.2277 72.9997 31.1741 71.9476 28.6821 70.0103C26.1901 68.0729 24.3988 65.3584 23.5854 62.2869L13.9839 26.0784Z" fill="#005691"/>
<path d="M74.9006 26.0784L65.3056 62.3137C64.4943 65.3804 62.7054 68.0903 60.2166 70.0231C57.7278 71.956 54.6781 73.0036 51.5408 73.0036L56.9591 52.5578L61.1423 36.7615C61.9536 33.6967 63.7418 30.9885 66.2294 29.0569C68.7169 27.1253 71.7649 26.0783 74.9006 26.0784Z" fill="#009AB9"/>
<path d="M38.983 26.0784L44.4345 46.6586L37.4624 73.0036H37.3695L31.9512 52.5242L38.9498 26.0784" fill="#157DC3"/>
<path d="M38.9836 26.0784C42.1321 26.0738 45.1939 27.122 47.6928 29.0601C50.1918 30.9982 51.9878 33.7175 52.8016 36.7951L56.9782 52.5578L51.54 73.0036H51.4072L44.4351 46.6653L38.9836 26.0784Z" fill="#004A7C"/>
</svg>
