<svg width="70" height="70" viewBox="0 0 70 70" fill="none" xmlns="http://www.w3.org/2000/svg">
<path d="M14.5832 37.9165L49.1749 37.9165L38.5874 50.6332C38.0923 51.2288 37.8541 51.9967 37.9253 52.768C37.9964 53.5392 38.3709 54.2506 38.9666 54.7457C39.5622 55.2408 40.3301 55.4789 41.1013 55.4078C41.8726 55.3367 42.584 54.9621 43.0791 54.3665L57.6624 36.8665C57.7605 36.7273 57.8483 36.5811 57.9249 36.429C57.9249 36.2832 57.9249 36.1957 58.1291 36.0498C58.2613 35.7154 58.3305 35.3594 58.3333 34.9998C58.3305 34.6402 58.2613 34.2843 58.1291 33.9498C58.1291 33.804 58.1291 33.7165 57.9249 33.5707C57.8483 33.4186 57.7605 33.2724 57.6624 33.1332L43.0791 15.6331C42.8048 15.3039 42.4614 15.0391 42.0733 14.8576C41.6851 14.6762 41.2617 14.5824 40.8332 14.5831C40.1518 14.5818 39.4913 14.8192 38.9666 15.254C38.6712 15.4988 38.4271 15.7995 38.2482 16.1389C38.0692 16.4782 37.959 16.8495 37.9238 17.2316C37.8885 17.6136 37.929 17.9988 38.0429 18.3651C38.1568 18.7315 38.3418 19.0718 38.5874 19.3665L49.1749 32.0832L14.5832 32.0832C13.8097 32.0832 13.0678 32.3905 12.5208 32.9374C11.9738 33.4844 11.6665 34.2263 11.6665 34.9998C11.6665 35.7734 11.9738 36.5152 12.5208 37.0622C13.0678 37.6092 13.8097 37.9165 14.5832 37.9165Z" fill="#231F20"/>
</svg>
